<?xml version="1.0" standalone="no"?>
<!DOCTYPE svg PUBLIC "-//W3C//DTD SVG 20010904//EN"
 "http://www.w3.org/TR/2001/REC-SVG-20010904/DTD/svg10.dtd">
<svg version="1.0" xmlns="http://www.w3.org/2000/svg"
 width="335.000000pt" height="339.000000pt" viewBox="0 0 335.000000 339.000000"
 preserveAspectRatio="xMidYMid meet">

<g transform="translate(0.000000,339.000000) scale(0.100000,-0.100000)"
fill="#000000" stroke="none">
<path d="M0 1695 l0 -1695 1675 0 1675 0 0 1695 0 1695 -1675 0 -1675 0 0
-1695z m3290 710 l0 -885 -88 0 c-109 0 -121 -10 -129 -99 l-6 -61 112 0 111
0 0 -40 0 -40 -74 0 c-41 0 -86 -4 -99 -9 -26 -10 -47 -55 -47 -102 l0 -29
110 0 110 0 0 -525 0 -526 -818 3 -817 3 -57 28 c-132 65 -189 192 -167 375
15 116 79 328 106 345 16 10 58 140 87 271 14 59 26 110 28 111 2 2 34 -4 72
-12 77 -15 167 -14 173 3 2 7 -22 14 -68 18 -135 14 -346 82 -398 129 -20 18
-25 19 -29 7 -8 -24 -77 -84 -129 -113 -27 -14 -84 -35 -127 -47 -66 -18 -88
-29 -133 -70 -100 -92 -237 -120 -550 -115 -168 3 -203 1 -203 -10 0 -28 42
-35 205 -38 99 -2 170 -8 176 -14 8 -8 6 -21 -6 -44 l-16 -34 20 25 c11 14 21
21 21 16 0 -5 7 -3 15 4 11 9 25 10 65 0 27 -7 50 -17 50 -23 0 -7 12 -12 28
-13 15 -1 79 -15 144 -32 153 -41 266 -55 399 -50 60 2 109 3 109 2 0 -1 -13
-52 -30 -115 -16 -63 -35 -160 -42 -216 l-13 -102 -55 25 c-173 80 -302 71
-367 -27 -14 -22 -32 -38 -39 -35 -16 6 -28 -25 -13 -35 8 -5 6 -24 -10 -70
-11 -35 -21 -82 -21 -106 l0 -43 -395 0 -395 0 0 1600 0 1600 1600 0 1600 0 0
-885z m-1830 -1100 c8 -7 44 -24 80 -38 62 -25 63 -26 35 -33 -17 -4 -42 -15
-56 -25 -48 -33 -183 -81 -245 -86 -61 -6 -164 18 -164 37 0 4 18 11 39 15 54
9 165 65 226 113 49 39 56 41 85 17z m97 -190 c26 -45 25 -70 -10 -186 l-22
-71 -158 -5 -157 -5 -238 57 c-130 31 -262 64 -292 73 l-55 16 85 7 c147 11
245 45 322 110 l47 39 57 -25 c104 -46 202 -41 325 15 57 26 69 23 96 -25z"/>
<path d="M2470 3049 c-118 -61 -269 -133 -335 -161 -244 -103 -370 -167 -370
-185 0 -25 7 -23 115 29 158 75 218 103 380 173 85 37 196 87 245 110 170 80
199 82 184 16 -13 -60 -56 -163 -90 -216 -16 -25 -29 -51 -29 -58 0 -7 -15
-28 -34 -47 -29 -30 -73 -110 -61 -110 2 0 15 19 29 43 14 23 26 38 26 32 0
-10 74 102 132 199 36 60 58 61 53 4 -1 -24 4 -95 13 -158 10 -70 16 -182 16
-285 0 -150 -3 -184 -27 -286 -34 -145 -65 -225 -113 -290 -27 -37 -39 -47
-45 -37 -6 8 -9 1 -9 -22 l0 -34 45 44 c87 85 152 265 176 487 13 122 8 243
-17 383 -13 74 -15 128 -10 241 3 82 2 160 -4 178 -8 29 -34 60 -50 60 -3 0
-102 -49 -220 -110z"/>
<path d="M365 2999 c-4 -6 -5 -12 -2 -15 2 -3 7 2 10 11 7 17 1 20 -8 4z"/>
<path d="M400 3000 c8 -5 29 -9 45 -9 29 1 29 1 5 9 -14 4 -34 8 -45 9 -16 1
-17 -1 -5 -9z"/>
<path d="M1280 2990 c-10 -6 -16 -38 -20 -122 -4 -92 -8 -112 -20 -110 -32 7
-72 4 -82 -6 -16 -16 -23 -108 -9 -116 22 -14 10 -32 -36 -55 -58 -28 -214
-145 -267 -200 l-39 -40 -48 52 c-27 29 -49 55 -49 60 0 4 20 7 45 7 25 0 45
2 45 5 0 2 -20 25 -45 50 -25 25 -41 37 -36 27 5 -10 17 -24 25 -32 25 -20 19
-27 -24 -27 -22 0 -44 -3 -47 -7 -11 -11 27 -73 73 -118 41 -41 42 -43 28 -70
-8 -15 -18 -28 -22 -28 -4 0 -17 18 -30 40 -12 22 -31 44 -41 50 -14 7 -10 -6
17 -52 21 -34 36 -64 35 -67 -1 -3 -9 -23 -17 -43 -9 -21 -14 -38 -12 -38 3 0
24 28 47 63 60 88 150 179 252 254 84 62 173 113 195 113 22 0 22 20 2 59 -37
73 -20 107 39 77 57 -30 58 -28 64 112 3 70 7 136 9 146 4 22 -11 30 -32 16z"/>
<path d="M2800 2936 c0 -36 3 -66 7 -66 3 0 15 7 25 17 10 9 20 14 23 11 5 -5
39 -218 57 -358 13 -107 4 -395 -16 -515 -23 -136 -43 -202 -86 -294 l-40 -83
25 -30 c41 -49 31 -63 -45 -63 l-65 0 -3 68 c-2 47 -7 67 -15 64 -6 -2 -11
-17 -12 -33 0 -27 -3 -29 -50 -36 -27 -3 -127 -7 -221 -7 -168 -1 -171 -1
-182 22 l-12 22 3 -25 2 -25 233 -3 232 -2 0 -29 c0 -21 -6 -30 -22 -35 -13
-3 -117 -6 -231 -6 -201 0 -209 1 -214 20 -4 17 -19 27 -24 18 -1 -2 -4 -92
-8 -200 l-6 -197 -47 -45 c-25 -25 -59 -71 -73 -101 -27 -54 -31 -57 -158
-127 -73 -40 -165 -84 -206 -99 -84 -29 -110 -56 -45 -46 59 10 153 51 297
130 72 39 196 101 278 138 81 37 158 75 171 83 14 9 42 46 64 83 l39 67 5 -58
5 -58 47 36 c26 20 52 45 58 56 11 21 40 27 40 9 0 -39 -31 -99 -82 -159 -32
-39 -58 -74 -58 -80 0 -19 20 -10 59 25 43 39 57 34 45 -17 -13 -63 -93 -165
-187 -239 -26 -21 -43 -40 -38 -44 15 -9 107 52 147 98 l36 42 -7 -35 c-12
-61 -61 -153 -120 -225 -31 -39 -51 -71 -44 -74 13 -4 127 106 135 131 10 31
24 19 18 -14 -18 -96 -164 -280 -309 -390 -24 -18 -47 -39 -50 -47 -5 -12 -2
-11 12 1 10 9 37 21 59 27 23 6 92 36 152 67 84 41 121 67 152 102 23 26 45
47 48 47 4 0 10 -20 13 -45 5 -40 6 -37 7 25 1 39 -7 117 -17 175 -16 94 -20
105 -40 108 -12 2 -21 9 -19 15 31 104 63 197 69 197 11 0 74 -92 108 -157 65
-128 115 -282 126 -395 5 -42 10 -56 20 -52 7 3 16 0 20 -6 5 -8 13 -2 25 17
34 55 112 133 165 163 29 17 56 37 59 46 8 22 8 26 -4 19 -5 -3 -19 -1 -31 6
-21 11 -31 3 -126 -96 -57 -59 -106 -105 -109 -102 -4 3 -10 40 -15 83 -12
113 -71 280 -142 404 -8 14 -25 50 -39 80 l-25 54 50 46 c42 39 50 51 54 92 5
42 2 50 -23 76 -16 16 -34 31 -40 33 -7 3 -8 26 -3 74 4 39 8 95 8 126 l1 57
70 4 c59 3 74 8 95 29 l25 25 -32 43 -32 44 18 46 c71 185 104 357 113 586 8
236 -39 633 -85 702 -4 6 -20 15 -35 18 l-27 7 0 -66z m-422 -1747 c3 -28 -31
-79 -54 -79 -18 0 -18 2 3 61 19 54 46 63 51 18z m341 0 c17 -30 10 -66 -19
-100 l-20 -24 11 27 c15 34 4 75 -21 83 -20 6 -26 25 -13 39 14 14 48 0 62
-25z m-54 -65 c15 -15 14 -19 -11 -45 -15 -16 -31 -26 -36 -23 -9 6 0 53 15
72 12 15 12 15 32 -4z m-517 -40 c-3 -26 -72 -94 -83 -83 -6 7 67 108 78 109
5 0 7 -12 5 -26z m412 -589 c-16 -53 -71 -110 -145 -147 l-60 -30 26 28 c55
61 159 206 166 232 l7 27 9 -35 c6 -23 5 -48 -3 -75z"/>
<path d="M475 2970 c26 -11 55 -12 55 -2 0 4 -17 8 -37 9 -29 0 -33 -1 -18 -7z"/>
<path d="M338 2914 c-22 -81 -51 -259 -45 -281 3 -10 5 -4 6 14 0 17 6 35 11
38 6 4 8 10 5 14 -5 10 21 171 36 219 6 18 9 38 7 44 -3 7 -12 -15 -20 -48z"/>
<path d="M645 2920 c3 -4 14 -10 25 -13 11 -3 18 -2 15 3 -3 4 -14 10 -25 13
-11 3 -18 2 -15 -3z"/>
<path d="M710 2890 c8 -5 20 -10 25 -10 6 0 3 5 -5 10 -8 5 -19 10 -25 10 -5
0 -3 -5 5 -10z"/>
<path d="M420 2669 c0 -5 5 -7 10 -4 6 3 10 8 10 11 0 2 -4 4 -10 4 -5 0 -10
-5 -10 -11z"/>
<path d="M441 2634 c0 -11 3 -14 6 -6 3 7 2 16 -1 19 -3 4 -6 -2 -5 -13z"/>
<path d="M2373 2438 c-33 -57 -63 -111 -66 -120 -13 -38 14 -25 66 32 29 33
56 60 59 60 13 0 -12 -83 -40 -134 -18 -31 -32 -59 -32 -62 0 -3 29 -4 65 -2
41 2 65 0 65 -7 0 -18 -46 -110 -64 -128 -16 -15 -15 -17 19 -31 38 -16 43
-27 20 -46 -18 -15 -20 -40 -2 -40 15 0 27 9 50 37 18 21 18 22 -12 48 -30 27
-30 28 -13 59 25 48 42 98 42 130 0 26 -2 28 -30 22 -16 -3 -43 -9 -60 -12
-23 -5 -30 -3 -30 9 0 8 6 20 14 26 19 16 46 96 46 138 0 42 -25 44 -71 6 -36
-31 -36 -32 9 55 18 34 31 62 29 62 -2 0 -31 -46 -64 -102z"/>
<path d="M1592 2118 c-5 -7 -13 -40 -17 -73 -6 -52 -12 -64 -44 -92 -36 -32
-75 -47 -53 -20 8 9 8 34 0 85 -15 105 -32 88 -38 -38 -3 -69 -9 -105 -17
-107 -18 -6 -51 54 -59 104 -4 27 -11 43 -20 43 -27 0 -8 -125 26 -172 26 -36
25 -43 -10 -88 -38 -48 -43 -84 -12 -88 20 -3 22 -9 22 -70 0 -67 20 -119 41
-107 5 4 9 40 9 81 0 41 3 74 8 74 4 0 18 -16 31 -35 40 -59 123 -103 249
-132 22 -5 52 11 52 28 0 15 -39 49 -55 49 -9 0 -21 -11 -27 -25 -14 -31 -29
-31 -98 1 -137 63 -175 170 -101 278 40 58 88 91 170 116 107 34 192 21 261
-37 55 -47 80 -101 87 -183 l6 -68 -43 -46 c-23 -25 -38 -46 -32 -46 15 0 70
66 86 104 8 19 19 37 25 40 16 10 13 95 -5 149 -18 54 -74 115 -129 142 -22
10 -71 21 -110 24 l-70 6 -5 39 c-7 53 -27 58 -35 9 -10 -57 -13 -63 -34 -63
-22 0 -31 25 -31 88 0 42 -9 52 -28 30z"/>
<path d="M612 2008 c16 -16 34 -28 41 -28 6 0 3 6 -8 12 -11 6 -29 18 -40 27
-12 9 -8 4 7 -11z"/>
<path d="M1677 1917 c-88 -22 -130 -93 -67 -116 33 -11 37 -22 15 -41 -13 -10
-19 -10 -33 4 -24 21 -32 20 -32 -5 0 -28 16 -58 53 -96 27 -29 38 -33 80 -33
83 0 145 43 162 113 7 27 -10 87 -25 87 -5 0 -20 20 -34 45 -15 25 -31 45 -36
45 -4 0 -14 2 -22 4 -7 2 -35 -1 -61 -7z m43 -52 c0 -10 -10 -15 -26 -15 -22
0 -25 2 -14 15 7 8 19 15 26 15 8 0 14 -7 14 -15z m50 -75 c-35 -31 -55 -34
-55 -9 0 8 16 19 35 26 54 18 58 15 20 -17z m-15 -70 c-3 -5 -14 -10 -23 -9
-14 0 -13 2 3 9 27 11 27 11 20 0z"/>
<path d="M980 1735 c0 -79 -16 -86 -51 -20 -13 25 -30 45 -36 45 -16 0 -16 -5
-3 -50 17 -60 -36 -71 -72 -15 -30 45 -50 47 -37 3 13 -47 13 -48 -27 -48 -52
0 -224 -94 -224 -123 0 -10 53 -5 83 8 15 6 17 0 17 -57 0 -36 7 -86 17 -113
12 -35 13 -50 5 -53 -12 -4 -17 -32 -6 -32 24 0 154 105 154 124 0 15 46 50
78 60 12 4 22 10 22 14 0 4 -16 31 -35 59 -19 29 -35 54 -35 57 0 2 22 7 50
11 63 9 110 -1 110 -23 1 -14 5 -12 20 7 15 17 20 38 20 80 0 91 -10 131 -31
131 -17 0 -19 -8 -19 -65z m-250 -163 c0 -4 -5 -13 -12 -20 -17 -17 -16 -110
1 -151 12 -28 12 -34 1 -41 -8 -5 -17 -7 -21 -5 -12 8 -29 92 -29 144 0 40 4
53 22 65 25 18 38 20 38 8z m47 -114 c-3 -7 -5 -2 -5 12 0 14 2 19 5 13 2 -7
2 -19 0 -25z"/>
<path d="M1931 1724 c0 -11 3 -14 6 -6 3 7 2 16 -1 19 -3 4 -6 -2 -5 -13z"/>
<path d="M2520 1693 c-14 -7 -36 -13 -50 -13 -44 0 -100 -12 -100 -21 0 -5 47
-9 105 -9 63 0 105 4 105 10 0 6 -5 10 -10 10 -6 0 -14 8 -18 18 -6 16 -10 16
-32 5z"/>
<path d="M2608 1663 c6 -2 18 -2 25 0 6 3 1 5 -13 5 -14 0 -19 -2 -12 -5z"/>
<path d="M366 1564 c-11 -27 60 -159 120 -224 59 -63 61 -65 81 -52 9 6 -7 28
-52 75 -47 47 -75 87 -99 142 -19 41 -37 75 -39 75 -3 0 -8 -7 -11 -16z"/>
<path d="M1830 1558 c-24 -26 -26 -54 -5 -62 37 -14 65 26 45 64 -13 25 -15
25 -40 -2z"/>
<path d="M1030 1415 c-13 -14 -32 -25 -42 -25 -24 0 -23 -21 3 -54 22 -27 59
-35 59 -12 0 7 9 25 21 40 23 29 22 69 -1 74 -9 1 -27 -9 -40 -23z"/>
<path d="M850 501 c0 -22 5 -43 10 -46 6 -4 10 10 10 34 0 22 -4 43 -10 46 -6
4 -10 -10 -10 -34z"/>
<path d="M501 484 c0 -11 3 -14 6 -6 3 7 2 16 -1 19 -3 4 -6 -2 -5 -13z"/>
<path d="M320 431 c0 -11 21 -49 48 -84 26 -35 62 -85 80 -110 38 -56 75 -76
80 -44 2 12 -2 48 -9 81 -10 46 -14 55 -18 38 -6 -21 -13 -16 -79 57 -73 81
-102 98 -102 62z"/>
<path d="M870 394 c0 -16 5 -36 10 -44 7 -11 9 -4 5 24 -5 47 -15 60 -15 20z"/>
<path d="M452 148 c2 -6 10 -14 16 -16 7 -2 10 2 6 12 -7 18 -28 22 -22 4z"/>
<path d="M2008 143 c7 -3 16 -2 19 1 4 3 -2 6 -13 5 -11 0 -14 -3 -6 -6z"/>
</g>
</svg>
